<?xml version="1.0" standalone="no"?>
<!DOCTYPE svg PUBLIC "-//W3C//DTD SVG 20010904//EN"
 "http://www.w3.org/TR/2001/REC-SVG-20010904/DTD/svg10.dtd">
<svg version="1.0" xmlns="http://www.w3.org/2000/svg"
 width="32.000000pt" height="32.000000pt" viewBox="0 0 32.000000 32.000000"
 preserveAspectRatio="xMidYMid meet">

<g transform="translate(0.000000,32.000000) scale(0.100000,-0.100000)"
fill="#000000" stroke="none">
<path d="M70 280 c0 -17 8 -19 70 -22 l69 -3 -69 -117 c-62 -107 -67 -118 -47
-118 18 0 38 28 104 140 l82 140 -105 0 c-97 0 -104 -1 -104 -20z"/>
<path d="M146 44 c-3 -9 -6 -18 -6 -20 0 -2 32 -4 70 -4 63 0 70 2 70 20 0 18
-7 20 -64 20 -49 0 -65 -4 -70 -16z"/>
</g>
</svg>
